<svg xmlns="http://www.w3.org/2000/svg" width="1920" height="110" viewBox="0 0 1920 110">
    <g fill="#FFF" fill-rule="evenodd">
        <path fill-opacity=".5" d="M0 0h1920v70.4l-12.458.715C1497.134 94.594 1157.62 106.333 889 106.333S327.257 98.787 9.633 83.693L0 83.233V0z" transform="matrix(-1 0 0 1 1920 0)"/>
        <path fill-opacity=".5" d="M0 0h1920v38.5c-410.408 45.52-762.38 68.567-1031 68.567S317.625 94.568 0 68.933V0z" transform="matrix(-1 0 0 1 1920 0)"/>
        <path d="M0 0h1920l-12.458 2.116C1497.134 71.594 1157.62 107.066 889 107.066S327.257 87.527 9.633 49.913L0 48.767V0z" transform="matrix(-1 0 0 1 1920 0)"/>
    </g>
</svg>
